<?xml version="1.0" encoding="utf-8" standalone="no"?>
<!DOCTYPE svg PUBLIC "-//W3C//DTD SVG 1.1//EN"
  "http://www.w3.org/Graphics/SVG/1.1/DTD/svg11.dtd">
<!-- Created with matplotlib (http://matplotlib.org/) -->
<svg height="432pt" version="1.1" viewBox="0 0 576 432" width="576pt" xmlns="http://www.w3.org/2000/svg" xmlns:xlink="http://www.w3.org/1999/xlink">
 <defs>
  <style type="text/css">
*{stroke-linecap:butt;stroke-linejoin:round;}
  </style>
 </defs>
 <g id="figure_1">
  <g id="patch_1">
   <path d="
M0 432
L576 432
L576 0
L0 0
z
" style="fill:#ffffff;"/>
  </g>
  <g id="axes_1">
   <g id="patch_2">
    <path clip-path="url(#p8ccb978988)" d="
M269.898 236.917
L288.672 244.648
L283.161 250.159
L330.017 297.015
L329.995 297.037
L283.139 250.181
L277.628 255.692
z
" style="fill:#b8860b;stroke:#b8860b;stroke-linejoin:miter;stroke-width:2;"/>
   </g>
   <g id="patch_3">
    <path clip-path="url(#p8ccb978988)" d="
M482.079 119.722
L463.731 138.399
L460.054 131.528
L267.539 234.565
L267.524 234.538
L460.039 131.5
L456.361 124.629
z
" style="fill:#000080;stroke:#000080;stroke-linejoin:miter;stroke-width:2;"/>
   </g>
   <g id="patch_4">
    <path clip-path="url(#p8ccb978988)" d="
M434.645 41.3218
L433.248 61.5777
L426.277 58.0923
L363.803 183.04
L363.775 183.026
L426.249 58.0783
L419.278 54.5929
z
" style="fill:#4682b4;stroke:#4682b4;stroke-linejoin:miter;stroke-width:2;"/>
   </g>
   <g id="line2d_1">
    <path clip-path="url(#p8ccb978988)" d="
M-1 422.038
L0.639928 419.609
L2.56376 417.114
L4.65147 414.74
L6.89361 412.498
L9.27975 410.4
L11.7985 408.458
L14.4376 406.68
L17.1839 405.076
L20.0239 403.654
L22.943 402.419
L25.9264 401.378
L28.9589 400.533
L32.0247 399.888
L35.1081 399.444
L38.1932 399.201
L41.2639 399.158
L44.3044 399.311
L47.2991 399.658
L50.2324 400.193
L53.0896 400.91
L55.8561 401.801
L58.5181 402.858
L61.0622 404.07
L63.4762 405.427
L65.7485 406.917
L67.8684 408.528
L69.8262 410.246
L71.6134 412.057
L73.2224 413.947
L74.6471 415.9
L75.8822 417.9
L76.9239 419.931
L77.7697 421.978
L78.4181 424.025
L78.8692 426.054
L79.1242 428.05
L79.1857 429.996
L79.0574 431.878
L78.8815 433
M47.2246 433
L46.0678 431.017
L44.9633 428.761
L44.0023 426.373
L43.1954 423.867
L42.5518 421.256
L42.0802 418.554
L41.7878 415.776
L41.6807 412.937
L41.7638 410.054
L42.0408 407.141
L42.514 404.216
L43.1847 401.294
L44.0526 398.391
L45.1162 395.525
L46.3729 392.71
L47.8186 389.962
L49.448 387.297
L51.2548 384.728
L53.2313 382.27
L55.3688 379.936
L57.6576 377.738
L60.0868 375.688
L62.6449 373.797
L65.3193 372.073
L68.0967 370.526
L70.9632 369.162
L73.9042 367.988
L76.9048 367.008
L79.9495 366.227
L83.0226 365.645
L86.1083 365.264
L89.1905 365.084
L92.2534 365.104
L95.2811 365.319
L98.2581 365.726
L101.169 366.319
L103.999 367.092
L106.734 368.036
L109.36 369.142
L111.865 370.402
L114.235 371.802
L116.46 373.332
L118.53 374.978
L120.435 376.727
L122.167 378.564
L123.718 380.476
L125.084 382.445
L126.258 384.457
L127.238 386.495
L128.022 388.543
L128.608 390.586
L128.997 392.606
L129.19 394.588
L129.191 396.516
L129.004 398.375
L128.634 400.149
L128.088 401.823
L127.374 403.385
L126.5 404.821
L125.476 406.119
L124.313 407.267
L123.024 408.255
L121.62 409.074
L120.116 409.715
L118.525 410.172
L116.861 410.438
L115.14 410.509
L113.378 410.382
L111.59 410.055
L109.792 409.526
L107.999 408.797
L106.229 407.869
L104.496 406.746
L102.816 405.432
L101.205 403.933
L99.6772 402.255
L98.2464 400.407
L96.9265 398.398
L95.7304 396.239
L94.67 393.939
L93.7566 391.513
L93.0002 388.972
L92.4101 386.331
L91.9943 383.603
L91.7597 380.805
L91.7122 377.95
L91.8561 375.056
L92.1948 372.137
L92.7303 369.211
L93.4633 366.294
L94.3932 363.401
L95.5181 360.549
L96.8349 357.753
L98.3392 355.03
L100.025 352.393
L101.887 349.858
L103.915 347.438
L106.101 345.146
L108.436 342.993
L110.907 340.992
L113.503 339.153
L116.211 337.484
L119.018 335.994
L121.91 334.69
L124.871 333.576
L127.888 332.659
L130.943 331.94
L134.022 331.422
L137.108 331.104
L140.186 330.988
L143.239 331.069
L146.253 331.345
L149.211 331.812
L152.098 332.462
L154.899 333.29
L157.601 334.286
L160.19 335.442
L162.654 336.747
L164.98 338.19
L167.157 339.758
L169.175 341.438
L171.026 343.217
L172.702 345.079
L174.195 347.01
L175.501 348.994
L176.614 351.016
L177.533 353.06
L178.254 355.108
L178.778 357.145
L179.105 359.155
L179.237 361.122
L179.179 363.03
L178.933 364.863
L178.507 366.607
L177.907 368.248
L177.141 369.771
L176.218 371.164
L175.149 372.416
L173.946 373.515
L172.619 374.45
L171.182 375.214
L169.648 375.798
L168.033 376.195
L166.35 376.4
L164.614 376.409
L162.842 376.219
L161.049 375.828
L159.251 375.236
L157.464 374.444
L155.703 373.454
L153.986 372.27
L152.326 370.897
L150.739 369.341
L149.241 367.608
L147.843 365.709
L146.561 363.651
L145.407 361.446
L144.391 359.105
L143.526 356.641
L142.822 354.067
L142.286 351.397
L141.926 348.646
L141.75 345.828
L141.763 342.959
L141.968 340.055
L142.369 337.132
L142.966 334.207
L143.762 331.296
L144.753 328.414
L145.939 325.578
L147.316 322.804
L148.878 320.106
L150.62 317.5
L152.535 315
L154.614 312.619
L156.848 310.369
L159.227 308.264
L161.739 306.313
L164.372 304.526
L167.113 302.913
L169.948 301.481
L172.864 300.236
L175.844 299.184
L178.874 298.329
L181.939 297.673
L185.022 297.218
L188.107 296.965
L191.179 296.911
L194.221 297.054
L197.219 297.391
L200.156 297.916
L203.018 298.623
L205.789 299.505
L208.457 300.553
L211.008 301.757
L213.429 303.107
L215.709 304.59
L217.837 306.195
L219.804 307.908
L221.601 309.714
L223.219 311.6
L224.654 313.55
L225.899 315.548
L226.951 317.578
L227.808 319.625
L228.467 321.671
L228.928 323.702
L229.194 325.7
L229.265 327.65
L229.147 329.535
L228.844 331.342
L228.362 333.055
L227.708 334.66
L226.892 336.144
L225.922 337.494
L224.81 338.698
L223.566 339.747
L222.203 340.629
L220.734 341.337
L219.173 341.862
L217.534 342.199
L215.833 342.343
L214.084 342.289
L212.304 342.036
L210.507 341.582
L208.711 340.926
L206.93 340.072
L205.182 339.02
L203.481 337.776
L201.843 336.344
L200.282 334.731
L198.814 332.945
L197.452 330.994
L196.208 328.889
L195.097 326.64
L194.128 324.259
L193.312 321.759
L192.66 319.153
L192.179 316.456
L191.877 313.681
L191.76 310.846
L191.832 307.964
L192.099 305.053
L192.562 302.127
L193.222 299.205
L194.079 296.301
L195.133 293.432
L196.379 290.614
L197.815 287.862
L199.435 285.192
L201.232 282.618
L203.2 280.153
L205.329 277.812
L207.61 275.607
L210.032 273.549
L212.584 271.649
L215.252 269.916
L218.024 268.36
L220.886 266.986
L223.824 265.802
L226.822 264.811
L229.864 264.019
L232.936 263.426
L236.022 263.035
L239.105 262.845
L242.169 262.853
L245.199 263.058
L248.179 263.455
L251.094 264.038
L253.929 264.802
L256.669 265.737
L259.301 266.835
L261.812 268.086
L264.19 269.48
L266.424 271.003
L268.502 272.643
L270.416 274.387
L272.157 276.22
L273.718 278.128
L275.094 280.094
L276.278 282.104
L277.269 284.141
L278.063 286.19
L278.659 288.233
L279.059 290.255
L279.263 292.24
L279.274 294.171
L279.097 296.033
L278.737 297.812
L278.2 299.492
L277.494 301.061
L276.628 302.503
L275.612 303.809
L274.457 304.965
L273.174 305.962
L271.776 306.79
L270.276 307.441
L268.689 307.908
L267.029 308.184
L265.311 308.266
L263.551 308.15
L261.764 307.833
L259.966 307.315
L258.172 306.597
L256.4 305.679
L254.665 304.567
L252.982 303.262
L251.367 301.773
L249.834 300.104
L248.398 298.265
L247.072 296.265
L245.869 294.113
L244.801 291.821
L243.879 289.401
L243.114 286.866
L242.515 284.23
L242.09 281.506
L241.846 278.711
L241.788 275.859
L241.922 272.966
L242.25 270.049
L242.775 267.123
L243.497 264.204
L244.417 261.31
L245.531 258.455
L246.838 255.656
L248.332 252.929
L250.009 250.287
L251.861 247.746
L253.881 245.319
L256.059 243.02
L258.386 240.86
L260.85 238.851
L263.44 237.002
L266.142 235.324
L267.532 234.552
L267.532 234.552" style="fill:none;stroke:#dc143c;stroke-linecap:square;stroke-width:2;"/>
   </g>
   <g id="matplotlib.axis_1"/>
   <g id="matplotlib.axis_2"/>
   <g id="text_1">
    <!-- Fast Ion -->
    <defs>
     <path d="
M10.7969 46.6875
L2.875 46.6875
L2.875 51.9062
L10.7969 51.9062
L10.7969 68.0156
L19.8281 68.0156
L19.8281 51.9062
L36.7188 51.9062
L36.7188 46.6875
L19.8281 46.6875
L19.8281 13.7188
Q19.8281 7.125 21.0938 5.26562
Q22.3594 3.42188 25.7812 3.42188
Q29.2969 3.42188 30.9062 5.48438
Q32.5156 7.5625 32.625 12.2031
L39.4062 12.2031
Q39.0156 5.125 35.5469 1.84375
Q32.0781 -1.42188 25 -1.42188
Q17.2344 -1.42188 14.0156 2.01562
Q10.7969 5.46875 10.7969 13.7188
z
" id="BitstreamVeraSerif-Roman-74"/>
     <path d="
M5.60938 2.875
L5.60938 14.9844
L10.7969 14.9844
Q10.9844 9.1875 14.4219 6.29688
Q17.875 3.42188 24.6094 3.42188
Q30.6719 3.42188 33.8438 5.6875
Q37.0156 7.95312 37.0156 12.3125
Q37.0156 15.7188 34.6875 17.8125
Q32.375 19.9219 24.9062 22.3125
L18.4062 24.5156
Q11.7188 26.6562 8.71875 29.875
Q5.71875 33.1094 5.71875 38.0938
Q5.71875 45.2188 10.9375 49.2656
Q16.1562 53.3281 25.3906 53.3281
Q29.5 53.3281 34.0312 52.25
Q38.5781 51.1719 43.4062 49.125
L43.4062 37.7969
L38.2344 37.7969
Q38.0312 42.8281 34.7031 45.6562
Q31.3906 48.4844 25.6875 48.4844
Q20.0156 48.4844 17.1094 46.4844
Q14.2031 44.4844 14.2031 40.4844
Q14.2031 37.2031 16.4062 35.2188
Q18.6094 33.25 25.2031 31.2031
L32.3281 29
Q39.7031 26.7031 42.9375 23.2656
Q46.1875 19.8281 46.1875 14.4062
Q46.1875 7.03125 40.5469 2.79688
Q34.9062 -1.42188 25 -1.42188
Q19.9688 -1.42188 15.1875 -0.34375
Q10.4062 0.734375 5.60938 2.875" id="BitstreamVeraSerif-Roman-73"/>
     <path d="
M39.7969 16.3125
L39.7969 27.2969
L28.2188 27.2969
Q21.5312 27.2969 18.25 24.4062
Q14.9844 21.5312 14.9844 15.5781
Q14.9844 10.1562 18.2969 6.98438
Q21.625 3.8125 27.2969 3.8125
Q32.9062 3.8125 36.3438 7.28125
Q39.7969 10.75 39.7969 16.3125
M48.7812 32.4219
L48.7812 5.17188
L56.7812 5.17188
L56.7812 0
L39.7969 0
L39.7969 5.60938
Q36.8125 2 32.9062 0.28125
Q29 -1.42188 23.7812 -1.42188
Q15.1406 -1.42188 10.0625 3.17188
Q4.98438 7.76562 4.98438 15.5781
Q4.98438 23.6406 10.7969 28.0781
Q16.6094 32.5156 27.2031 32.5156
L39.7969 32.5156
L39.7969 36.0781
Q39.7969 42 36.2031 45.2344
Q32.625 48.4844 26.125 48.4844
Q20.75 48.4844 17.5781 46.0469
Q14.4062 43.6094 13.625 38.8125
L8.98438 38.8125
L8.98438 49.3125
Q13.6719 51.3125 18.0938 52.3125
Q22.5156 53.3281 26.7031 53.3281
Q37.5 53.3281 43.1406 47.9688
Q48.7812 42.625 48.7812 32.4219" id="BitstreamVeraSerif-Roman-61"/>
     <path id="BitstreamVeraSerif-Roman-20"/>
     <path d="
M4.10938 0
L4.10938 5.17188
L12.2031 5.17188
L12.2031 46.6875
L3.60938 46.6875
L3.60938 51.9062
L21.1875 51.9062
L21.1875 42.6719
Q23.6875 47.9531 27.6562 50.6406
Q31.6406 53.3281 36.9219 53.3281
Q45.5156 53.3281 49.5625 48.3906
Q53.6094 43.4531 53.6094 33.0156
L53.6094 5.17188
L61.625 5.17188
L61.625 0
L36.8125 0
L36.8125 5.17188
L44.5781 5.17188
L44.5781 30.1719
Q44.5781 39.7031 42.2344 43.2344
Q39.8906 46.7812 33.9844 46.7812
Q27.7344 46.7812 24.4531 42.2031
Q21.1875 37.6406 21.1875 28.9062
L21.1875 5.17188
L29 5.17188
L29 0
z
" id="BitstreamVeraSerif-Roman-6e"/>
     <path d="
M30.0781 3.42188
Q37.3125 3.42188 40.9844 9.125
Q44.6719 14.8438 44.6719 25.9844
Q44.6719 37.1094 40.9844 42.7969
Q37.3125 48.4844 30.0781 48.4844
Q22.8594 48.4844 19.1719 42.7969
Q15.4844 37.1094 15.4844 25.9844
Q15.4844 14.8438 19.1875 9.125
Q22.9062 3.42188 30.0781 3.42188
M30.0781 -1.42188
Q18.75 -1.42188 11.8594 6.07812
Q4.98438 13.5781 4.98438 25.9844
Q4.98438 38.375 11.8438 45.8438
Q18.7031 53.3281 30.0781 53.3281
Q41.4531 53.3281 48.3125 45.8438
Q55.1719 38.375 55.1719 25.9844
Q55.1719 13.5781 48.3125 6.07812
Q41.4531 -1.42188 30.0781 -1.42188" id="BitstreamVeraSerif-Roman-6f"/>
     <path d="
M24.7031 5.17188
L33.9844 5.17188
L33.9844 0
L5.51562 0
L5.51562 5.17188
L14.7969 5.17188
L14.7969 67.6719
L5.51562 67.6719
L5.51562 72.9062
L33.9844 72.9062
L33.9844 67.6719
L24.7031 67.6719
z
" id="BitstreamVeraSerif-Roman-49"/>
     <path d="
M5.51562 0
L5.51562 5.17188
L14.7969 5.17188
L14.7969 67.6719
L5.51562 67.6719
L5.51562 72.9062
L65.1875 72.9062
L65.1875 56.6875
L59.1875 56.6875
L59.1875 66.8906
L24.7031 66.8906
L24.7031 42.4844
L49.6094 42.4844
L49.6094 51.6094
L55.6094 51.6094
L55.6094 27.3906
L49.6094 27.3906
L49.6094 36.5312
L24.7031 36.5312
L24.7031 5.17188
L36.375 5.17188
L36.375 0
z
" id="BitstreamVeraSerif-Roman-46"/>
    </defs>
    <g style="fill:#dc143c;" transform="translate(208.594615385 360.981153846)scale(0.16 -0.16)">
     <use xlink:href="#BitstreamVeraSerif-Roman-46"/>
     <use x="62.634765625" xlink:href="#BitstreamVeraSerif-Roman-61"/>
     <use x="122.25390625" xlink:href="#BitstreamVeraSerif-Roman-73"/>
     <use x="173.572265625" xlink:href="#BitstreamVeraSerif-Roman-74"/>
     <use x="213.7578125" xlink:href="#BitstreamVeraSerif-Roman-20"/>
     <use x="245.544921875" xlink:href="#BitstreamVeraSerif-Roman-49"/>
     <use x="285.046875" xlink:href="#BitstreamVeraSerif-Roman-6f"/>
     <use x="345.251953125" xlink:href="#BitstreamVeraSerif-Roman-6e"/>
    </g>
   </g>
   <g id="text_2">
    <!-- Neutral -->
    <defs>
     <path d="
M54.2031 25
L15.4844 25
L15.4844 24.6094
Q15.4844 14.1094 19.4375 8.76562
Q23.3906 3.42188 31.1094 3.42188
Q37.0156 3.42188 40.7969 6.51562
Q44.5781 9.625 46.0938 15.7188
L53.3281 15.7188
Q51.1719 7.17188 45.375 2.875
Q39.5938 -1.42188 30.1719 -1.42188
Q18.7969 -1.42188 11.8906 6.07812
Q4.98438 13.5781 4.98438 25.9844
Q4.98438 38.2812 11.7656 45.7969
Q18.5625 53.3281 29.5938 53.3281
Q41.3594 53.3281 47.6562 46.0625
Q53.9531 38.8125 54.2031 25
M43.6094 30.1719
Q43.3125 39.2656 39.7656 43.875
Q36.2344 48.4844 29.5938 48.4844
Q23.3906 48.4844 19.8281 43.8438
Q16.2656 39.2031 15.4844 30.1719
z
" id="BitstreamVeraSerif-Roman-65"/>
     <path d="
M35.4062 51.9062
L52.2031 51.9062
L52.2031 5.17188
L60.6875 5.17188
L60.6875 0
L43.2188 0
L43.2188 9.1875
Q40.7188 4 36.7656 1.28125
Q32.8125 -1.42188 27.5938 -1.42188
Q18.9531 -1.42188 14.875 3.48438
Q10.7969 8.40625 10.7969 18.8906
L10.7969 46.6875
L2.6875 46.6875
L2.6875 51.9062
L19.8281 51.9062
L19.8281 21.6875
Q19.8281 12.2031 22.1406 8.6875
Q24.4688 5.17188 30.4219 5.17188
Q36.6719 5.17188 39.9375 9.76562
Q43.2188 14.3594 43.2188 23.0938
L43.2188 46.6875
L35.4062 46.6875
z
" id="BitstreamVeraSerif-Roman-75"/>
     <path d="
M4.89062 0
L4.89062 5.17188
L14.7031 5.17188
L14.7031 67.6719
L4.89062 67.6719
L4.89062 72.9062
L23.5781 72.9062
L67.2812 15.375
L67.2812 67.6719
L57.5156 67.6719
L57.5156 72.9062
L83.1094 72.9062
L83.1094 67.6719
L73.2969 67.6719
L73.2969 -1.42188
L67.3906 -1.42188
L20.7031 60.0156
L20.7031 5.17188
L30.5156 5.17188
L30.5156 0
z
" id="BitstreamVeraSerif-Roman-4e"/>
     <path d="
M47.7969 52
L47.7969 39.0156
L42.625 39.0156
Q42.3906 42.875 40.4844 44.7812
Q38.5781 46.6875 34.9062 46.6875
Q28.2656 46.6875 24.7188 42.0938
Q21.1875 37.5 21.1875 28.9062
L21.1875 5.17188
L31.5938 5.17188
L31.5938 0
L4.10938 0
L4.10938 5.17188
L12.2031 5.17188
L12.2031 46.7812
L3.60938 46.7812
L3.60938 51.9062
L21.1875 51.9062
L21.1875 42.6719
Q23.8281 48.0938 27.9688 50.7031
Q32.125 53.3281 38.0938 53.3281
Q40.2812 53.3281 42.7031 52.9844
Q45.125 52.6406 47.7969 52" id="BitstreamVeraSerif-Roman-72"/>
     <path d="
M20.5156 5.17188
L29 5.17188
L29 0
L2.875 0
L2.875 5.17188
L11.5312 5.17188
L11.5312 70.7969
L2.875 70.7969
L2.875 75.9844
L20.5156 75.9844
z
" id="BitstreamVeraSerif-Roman-6c"/>
    </defs>
    <g style="fill:#b8860b;" transform="translate(334.855384615 307.412730769)scale(0.16 -0.16)">
     <use xlink:href="#BitstreamVeraSerif-Roman-4e"/>
     <use x="87.5" xlink:href="#BitstreamVeraSerif-Roman-65"/>
     <use x="146.6796875" xlink:href="#BitstreamVeraSerif-Roman-75"/>
     <use x="211.083984375" xlink:href="#BitstreamVeraSerif-Roman-74"/>
     <use x="251.26953125" xlink:href="#BitstreamVeraSerif-Roman-72"/>
     <use x="299.072265625" xlink:href="#BitstreamVeraSerif-Roman-61"/>
     <use x="358.69140625" xlink:href="#BitstreamVeraSerif-Roman-6c"/>
    </g>
    <!-- Particle -->
    <defs>
     <path d="
M24.7031 37.1094
L37.5938 37.1094
Q44.875 37.1094 48.6719 41.0312
Q52.4844 44.9688 52.4844 52.3906
Q52.4844 59.8594 48.6719 63.7656
Q44.875 67.6719 37.5938 67.6719
L24.7031 67.6719
z

M5.51562 0
L5.51562 5.17188
L14.7969 5.17188
L14.7969 67.6719
L5.51562 67.6719
L5.51562 72.9062
L39.9844 72.9062
Q50.9219 72.9062 57.3125 67.3594
Q63.7188 61.8125 63.7188 52.3906
Q63.7188 43.0156 57.3125 37.4531
Q50.9219 31.8906 39.9844 31.8906
L24.7031 31.8906
L24.7031 5.17188
L35.9844 5.17188
L35.9844 0
z
" id="BitstreamVeraSerif-Roman-50"/>
     <path d="
M9.71875 68.0156
Q9.71875 70.2656 11.3438 71.9219
Q12.9844 73.5781 15.2812 73.5781
Q17.5312 73.5781 19.1562 71.9219
Q20.7969 70.2656 20.7969 68.0156
Q20.7969 65.7188 19.1875 64.1094
Q17.5781 62.5 15.2812 62.5
Q12.9844 62.5 11.3438 64.1094
Q9.71875 65.7188 9.71875 68.0156
M21.1875 5.17188
L29.6875 5.17188
L29.6875 0
L3.60938 0
L3.60938 5.17188
L12.2031 5.17188
L12.2031 46.6875
L3.60938 46.6875
L3.60938 51.9062
L21.1875 51.9062
z
" id="BitstreamVeraSerif-Roman-69"/>
     <path d="
M51.4219 15.5781
Q49.5156 7.28125 44.0938 2.92188
Q38.6719 -1.42188 30.0781 -1.42188
Q18.75 -1.42188 11.8594 6.07812
Q4.98438 13.5781 4.98438 25.9844
Q4.98438 38.4219 11.8594 45.875
Q18.75 53.3281 30.0781 53.3281
Q35.0156 53.3281 39.8906 52.1719
Q44.7812 51.0312 49.7031 48.6875
L49.7031 35.4062
L44.4844 35.4062
Q43.4531 42.2344 40.0156 45.3594
Q36.5781 48.4844 30.1719 48.4844
Q22.9062 48.4844 19.1875 42.8438
Q15.4844 37.2031 15.4844 25.9844
Q15.4844 14.75 19.1719 9.07812
Q22.8594 3.42188 30.1719 3.42188
Q35.9844 3.42188 39.4531 6.4375
Q42.9219 9.46875 44.1875 15.5781
z
" id="BitstreamVeraSerif-Roman-63"/>
    </defs>
    <g style="fill:#b8860b;" transform="translate(334.855384615 325.329230769)scale(0.16 -0.16)">
     <use xlink:href="#BitstreamVeraSerif-Roman-50"/>
     <use x="62.78515625" xlink:href="#BitstreamVeraSerif-Roman-61"/>
     <use x="122.404296875" xlink:href="#BitstreamVeraSerif-Roman-72"/>
     <use x="170.20703125" xlink:href="#BitstreamVeraSerif-Roman-74"/>
     <use x="210.392578125" xlink:href="#BitstreamVeraSerif-Roman-69"/>
     <use x="242.375" xlink:href="#BitstreamVeraSerif-Roman-63"/>
     <use x="298.380859375" xlink:href="#BitstreamVeraSerif-Roman-6c"/>
     <use x="330.36328125" xlink:href="#BitstreamVeraSerif-Roman-65"/>
    </g>
   </g>
   <g id="text_3">
    <!-- 💥 -->
    <defs>
     <path d="
M96.9688 8.45312
L70.5625 10.5469
Q70.5625 10.5469 68.1719 10.5469
Q67.7812 8.79688 67.7812 5.71875
Q67.7812 3.5625 67.7812 3.32812
L68.8906 -18.7031
Q64.5 -13.1875 60.1094 -7.71875
Q54.9375 -1.51562 50.5312 2.64062
L31.4531 -17.1875
Q34.8594 -4.15625 36.4219 4.20312
Q36.375 4.25 36.3281 4.25
Q36.2812 4.25 25.2031 0.09375
Q25.4844 0.875 27.7812 4.64062
Q29.6875 7.71875 29.7344 9.03125
L29.6406 9.1875
L4.29688 0.59375
Q12.4062 9.07812 14.6562 11.5781
Q20.4062 17.9219 24.4219 23.1406
Q23.9219 23.6875 4.15625 28.1719
L25.0469 35.5
L25.0938 35.5
Q25.2031 35.5469 25.2031 35.75
Q25.2031 35.9375 23.2969 38.7188
Q16.6094 48.5312 4 61.6719
Q13.5312 56.9375 25.1406 52.6406
Q28.2188 51.4219 33.7344 49.6094
Q33.8438 49.6094 34.125 49.6094
Q35.2031 59.6719 34.9062 66.1094
Q39.3125 61.1875 48.5781 51.8594
Q49.2656 52.2031 55.125 62.4062
Q60.4062 71.5781 61.7656 74.3125
L63.3281 53.4688
Q63.375 53.375 63.5781 53.375
Q63.875 53.375 67.3281 55.2812
Q79.5 62.0156 95.2188 74.125
Q87.5938 62.8906 83.9844 57.1719
Q77.875 47.6094 73.6406 39.7031
Q76.8594 38.7188 81.7344 38.0312
Q85.8438 37.5 89.9375 36.9688
Q86.2812 34.1875 82.5625 31.3906
Q78.375 28.0781 75.6406 25.2969
Q79.6406 21.1875 85.9375 16.4531
Q91.4531 12.4531 96.9688 8.45312
M86.375 12.5469
Q82.375 15.5781 78.3281 18.6094
Q73.8281 22.1719 70.7969 25.2969
Q73.0469 28.4219 80.5625 35.0156
Q77.9375 35.1562 74.3594 36.0312
Q70.2188 37.0625 68.6562 38.3281
Q75.9844 51.4219 86.1406 64.1094
Q76.5156 56.3438 63.7188 49.8594
Q61.1406 48.5312 60.9375 48.5312
Q61.2344 48.5312 60.5938 48.6875
Q59.7188 54.3438 59.7188 65.375
Q56.6875 59.0781 49.8125 46.875
Q46.7344 49.3125 37.7969 58.4062
Q37.7969 50.3438 36.8594 45.5156
Q29.9844 47.2656 15.375 53.5156
L30.6719 35.0156
Q25.8281 32.3281 17.1406 29.1562
Q27.2969 27.0469 30.3281 25.4375
Q23.1406 16.75 14.3594 7.67188
Q26.1719 12.3125 32.5625 13.7656
Q34.9062 14.3125 34.9688 14.3125
Q35.25 14.3125 35.2031 14.2656
L35.2031 14.2031
Q33.9844 9.57812 32.9062 7.375
Q35.5469 8.5 40.5312 9.76562
L40.625 9.67188
Q39.8438 4.15625 37.5 -6.73438
Q43.75 1.51562 50.3906 7.95312
Q58.7969 0.59375 64.3594 -6.89062
Q63.9688 -1.5625 63.9688 -1.375
L63.9688 6.6875
Q63.9688 10.7969 64.9844 14.6562
L66.6094 14.6562
Q70.4531 14.6562 79.1562 13.5781
Q81.5938 13.3281 86.375 12.5469" id="Symbola-1f4a5"/>
    </defs>
    <g style="fill:#696969;" transform="translate(253.586513026 242.438418109)scale(0.3 -0.3)">
     <use xlink:href="#Symbola-1f4a5"/>
    </g>
   </g>
   <g id="text_4">
    <!-- Charge -->
    <defs>
     <path d="
M52.4844 46.6875
L52.4844 1.125
Q52.4844 -10.0625 46.3281 -16.1406
Q40.1875 -22.2188 28.8125 -22.2188
Q23.6875 -22.2188 19 -21.2812
Q14.3125 -20.3594 10.0156 -18.5
L10.0156 -7.625
L14.7031 -7.625
Q15.5781 -12.7031 18.8438 -15.0469
Q22.125 -17.3906 28.2188 -17.3906
Q36.1406 -17.3906 39.8125 -12.9219
Q43.5 -8.45312 43.5 1.125
L43.5 8.10938
Q40.875 3.21875 36.7969 0.890625
Q32.7188 -1.42188 26.7031 -1.42188
Q17.1406 -1.42188 11.0625 6.17188
Q4.98438 13.7656 4.98438 25.9844
Q4.98438 38.1875 11.0312 45.75
Q17.0938 53.3281 26.7031 53.3281
Q32.7188 53.3281 36.7969 51
Q40.875 48.6875 43.5 43.7969
L43.5 51.9062
L61.0781 51.9062
L61.0781 46.6875
z

M43.5 28.5156
Q43.5 37.8438 39.9062 42.7656
Q36.3281 47.7031 29.5 47.7031
Q22.5625 47.7031 19.0156 42.2344
Q15.4844 36.7656 15.4844 25.9844
Q15.4844 15.2344 19.0156 9.71875
Q22.5625 4.20312 29.5 4.20312
Q36.3281 4.20312 39.9062 9.10938
Q43.5 14.0156 43.5 23.3906
z
" id="BitstreamVeraSerif-Roman-67"/>
     <path d="
M4.10938 0
L4.10938 5.17188
L12.2031 5.17188
L12.2031 70.7969
L3.60938 70.7969
L3.60938 75.9844
L21.1875 75.9844
L21.1875 42.6719
Q23.6875 47.9531 27.6562 50.6406
Q31.6406 53.3281 36.9219 53.3281
Q45.5156 53.3281 49.5625 48.3906
Q53.6094 43.4531 53.6094 33.0156
L53.6094 5.17188
L61.625 5.17188
L61.625 0
L36.8125 0
L36.8125 5.17188
L44.5781 5.17188
L44.5781 30.1719
Q44.5781 39.7031 42.25 43.1875
Q39.9375 46.6875 33.9844 46.6875
Q27.7344 46.6875 24.4531 42.1406
Q21.1875 37.5938 21.1875 28.9062
L21.1875 5.17188
L29 5.17188
L29 0
z
" id="BitstreamVeraSerif-Roman-68"/>
     <path d="
M70.5156 19.2812
Q67.2812 9.07812 59.6875 3.82812
Q52.0938 -1.42188 40.4844 -1.42188
Q33.3438 -1.42188 27.2344 1.01562
Q21.1406 3.46875 16.4062 8.20312
Q10.9375 13.6719 8.26562 20.625
Q5.60938 27.5938 5.60938 36.375
Q5.60938 53.375 15.4219 63.7969
Q25.25 74.2188 41.3125 74.2188
Q47.2656 74.2188 54 72.6562
Q60.75 71.0938 68.5 67.9219
L68.5 51.125
L62.9844 51.125
Q61.1875 60.2969 55.7344 64.6406
Q50.2969 69 40.4844 69
Q28.8125 69 22.7969 60.7188
Q16.7969 52.4375 16.7969 36.375
Q16.7969 20.3594 22.7969 12.0781
Q28.8125 3.8125 40.4844 3.8125
Q48.6406 3.8125 53.9062 7.6875
Q59.1875 11.5781 61.5312 19.2812
z
" id="BitstreamVeraSerif-Roman-43"/>
    </defs>
    <g style="fill:#696969;" transform="translate(181.031442308 226.847711538)scale(0.16 -0.16)">
     <use xlink:href="#BitstreamVeraSerif-Roman-43"/>
     <use x="76.513671875" xlink:href="#BitstreamVeraSerif-Roman-68"/>
     <use x="140.91796875" xlink:href="#BitstreamVeraSerif-Roman-61"/>
     <use x="200.537109375" xlink:href="#BitstreamVeraSerif-Roman-72"/>
     <use x="248.33984375" xlink:href="#BitstreamVeraSerif-Roman-67"/>
     <use x="312.353515625" xlink:href="#BitstreamVeraSerif-Roman-65"/>
    </g>
    <!-- Exchange -->
    <defs>
     <path d="
M5.51562 0
L5.51562 5.17188
L14.7969 5.17188
L14.7969 67.6719
L5.51562 67.6719
L5.51562 72.9062
L64.2031 72.9062
L64.2031 56.6875
L58.2031 56.6875
L58.2031 66.8906
L24.7031 66.8906
L24.7031 42.4844
L48.5781 42.4844
L48.5781 51.6094
L54.5938 51.6094
L54.5938 27.3906
L48.5781 27.3906
L48.5781 36.5312
L24.7031 36.5312
L24.7031 6
L58.9844 6
L58.9844 16.2188
L64.9844 16.2188
L64.9844 0
z
" id="BitstreamVeraSerif-Roman-45"/>
     <path d="
M29.1094 31.6875
L39.9844 46.6875
L33.0156 46.6875
L33.0156 51.9062
L52.9844 51.9062
L52.9844 46.6875
L46.0938 46.6875
L32.1719 27.4844
L48.3906 5.17188
L55.1719 5.17188
L55.1719 0
L31.2031 0
L31.2031 5.17188
L37.7969 5.17188
L26.5156 20.7031
L15.1875 5.17188
L21.9219 5.17188
L21.9219 0
L2.20312 0
L2.20312 5.17188
L9.07812 5.17188
L23.3906 24.9062
L7.625 46.6875
L1.21875 46.6875
L1.21875 51.9062
L24.4219 51.9062
L24.4219 46.6875
L18.2188 46.6875
z
" id="BitstreamVeraSerif-Roman-78"/>
    </defs>
    <g style="fill:#696969;" transform="translate(170.985192308 244.991711538)scale(0.16 -0.16)">
     <use xlink:href="#BitstreamVeraSerif-Roman-45"/>
     <use x="72.998046875" xlink:href="#BitstreamVeraSerif-Roman-78"/>
     <use x="129.39453125" xlink:href="#BitstreamVeraSerif-Roman-63"/>
     <use x="185.400390625" xlink:href="#BitstreamVeraSerif-Roman-68"/>
     <use x="249.8046875" xlink:href="#BitstreamVeraSerif-Roman-61"/>
     <use x="309.423828125" xlink:href="#BitstreamVeraSerif-Roman-6e"/>
     <use x="373.828125" xlink:href="#BitstreamVeraSerif-Roman-67"/>
     <use x="437.841796875" xlink:href="#BitstreamVeraSerif-Roman-65"/>
    </g>
   </g>
   <g id="text_5">
    <!-- Fast -->
    <g style="fill:#000080;" transform="translate(443.205576923 155.230288462)scale(0.16 -0.16)">
     <use xlink:href="#BitstreamVeraSerif-Roman-46"/>
     <use x="62.634765625" xlink:href="#BitstreamVeraSerif-Roman-61"/>
     <use x="122.25390625" xlink:href="#BitstreamVeraSerif-Roman-73"/>
     <use x="173.572265625" xlink:href="#BitstreamVeraSerif-Roman-74"/>
    </g>
    <!-- Neutral -->
    <g style="fill:#000080;" transform="translate(429.178076923 173.146788462)scale(0.16 -0.16)">
     <use xlink:href="#BitstreamVeraSerif-Roman-4e"/>
     <use x="87.5" xlink:href="#BitstreamVeraSerif-Roman-65"/>
     <use x="146.6796875" xlink:href="#BitstreamVeraSerif-Roman-75"/>
     <use x="211.083984375" xlink:href="#BitstreamVeraSerif-Roman-74"/>
     <use x="251.26953125" xlink:href="#BitstreamVeraSerif-Roman-72"/>
     <use x="299.072265625" xlink:href="#BitstreamVeraSerif-Roman-61"/>
     <use x="358.69140625" xlink:href="#BitstreamVeraSerif-Roman-6c"/>
    </g>
   </g>
   <g id="text_6">
    <!-- ⚡ -->
    <defs>
     <path d="
M43.1094 46.0469
L29 -2.82812
L35.7969 -1.70312
L21.4844 -19.5312
L17.3906 2.6875
L22.9062 -1.51562
L26.8125 30.9531
L3.90625 19.4844
L18.8906 75.4844
L35.7969 75.4844
L18.6094 35.9844
z
" id="Symbola-26a1"/>
    </defs>
    <g style="fill:#696969;" transform="translate(300.154269353 207.878580853)scale(0.3 -0.3)">
     <use xlink:href="#Symbola-26a1"/>
    </g>
   </g>
   <g id="text_7">
    <!-- Plasma -->
    <defs>
     <path d="
M51.8125 41.7969
Q54.3906 47.5156 58.4219 50.4219
Q62.4531 53.3281 67.8281 53.3281
Q75.9844 53.3281 79.9844 48.2656
Q83.9844 43.2188 83.9844 33.0156
L83.9844 5.17188
L92.0938 5.17188
L92.0938 0
L67.1875 0
L67.1875 5.17188
L75 5.17188
L75 31.9844
Q75 39.9375 72.6562 43.3125
Q70.3125 46.6875 64.8906 46.6875
Q58.8906 46.6875 55.7344 42.1406
Q52.5938 37.5938 52.5938 28.9062
L52.5938 5.17188
L60.4062 5.17188
L60.4062 0
L35.7969 0
L35.7969 5.17188
L43.6094 5.17188
L43.6094 32.3281
Q43.6094 40.0938 41.2656 43.3906
Q38.9219 46.6875 33.5 46.6875
Q27.4844 46.6875 24.3281 42.1406
Q21.1875 37.5938 21.1875 28.9062
L21.1875 5.17188
L29 5.17188
L29 0
L4.10938 0
L4.10938 5.17188
L12.2031 5.17188
L12.2031 46.7812
L3.60938 46.7812
L3.60938 51.9062
L21.1875 51.9062
L21.1875 42.6719
Q23.6875 47.8594 27.5312 50.5938
Q31.3906 53.3281 36.2812 53.3281
Q42.3281 53.3281 46.375 50.3125
Q50.4375 47.3125 51.8125 41.7969" id="BitstreamVeraSerif-Roman-6d"/>
    </defs>
    <g style="fill:#696969;" transform="translate(243.877788462 164.601365385)scale(0.16 -0.16)">
     <use xlink:href="#BitstreamVeraSerif-Roman-50"/>
     <use x="67.28515625" xlink:href="#BitstreamVeraSerif-Roman-6c"/>
     <use x="99.267578125" xlink:href="#BitstreamVeraSerif-Roman-61"/>
     <use x="158.88671875" xlink:href="#BitstreamVeraSerif-Roman-73"/>
     <use x="210.205078125" xlink:href="#BitstreamVeraSerif-Roman-6d"/>
     <use x="305.029296875" xlink:href="#BitstreamVeraSerif-Roman-61"/>
    </g>
    <!-- Collision -->
    <g style="fill:#696969;" transform="translate(237.806538462 182.517865385)scale(0.16 -0.16)">
     <use xlink:href="#BitstreamVeraSerif-Roman-43"/>
     <use x="76.513671875" xlink:href="#BitstreamVeraSerif-Roman-6f"/>
     <use x="136.71875" xlink:href="#BitstreamVeraSerif-Roman-6c"/>
     <use x="168.701171875" xlink:href="#BitstreamVeraSerif-Roman-6c"/>
     <use x="200.68359375" xlink:href="#BitstreamVeraSerif-Roman-69"/>
     <use x="232.666015625" xlink:href="#BitstreamVeraSerif-Roman-73"/>
     <use x="283.984375" xlink:href="#BitstreamVeraSerif-Roman-69"/>
     <use x="315.966796875" xlink:href="#BitstreamVeraSerif-Roman-6f"/>
     <use x="376.171875" xlink:href="#BitstreamVeraSerif-Roman-6e"/>
    </g>
   </g>
   <g id="text_8">
    <!-- ✨ -->
    <defs>
     <path d="
M95.125 23.5312
Q85.25 23.1875 82.8594 20.1719
Q80.9062 17.7188 80.4688 7.51562
L78.9531 7.51562
Q78.6562 13.5781 78.0312 15.9688
Q76.7656 20.8438 73.1406 22.3125
Q70.9062 23.1875 64.1094 23.5781
L64.1094 25.25
Q73.9219 25.5312 76.375 28.5156
Q78.4219 30.9531 78.9062 41.1094
L80.4219 41.1094
Q81.0625 32.7656 81.4531 31.1562
Q82.2812 27.875 85.0625 26.7656
Q87.5469 25.7344 95.125 25.1406
z

M69.7344 39.0625
Q55.375 38.375 49.8594 36.5312
Q43.1719 34.1875 40.7188 27.8281
Q38.4844 22.0781 38.0312 7.90625
L36.375 7.90625
Q35.9375 21.9219 33.7344 27.7344
Q31.2969 34.1875 24.6562 36.5781
Q19 38.5781 4.89062 39.0625
L4.89062 40.7188
Q19 41.2656 24.5156 43.1094
Q31.0625 45.3594 33.5469 51.6562
Q35.7969 57.3281 36.3281 71.2969
L38.0938 71.2969
Q38.0312 58.1094 40.7188 51.8594
Q43.4062 45.6094 50.4375 43.1719
Q56.2969 41.1562 69.7344 40.7188
z

M74.9531 2.39062
Q69.875 2.34375 67.7188 2.04688
Q62.9375 1.42188 61.3281 -0.53125
Q60.0625 -2.09375 59.375 -5.67188
Q58.9375 -8.01562 58.2969 -15.5781
L56.8906 -15.5781
Q56.3438 -6.78125 55.7188 -4.4375
Q54.6875 -0.6875 51.4688 0.6875
Q48.5312 1.95312 40.3281 2.4375
L40.3281 4.15625
Q48.875 4.98438 51.4688 5.95312
Q54.6406 7.23438 55.5625 10.75
Q56.1094 12.6406 56.8906 21.875
L58.2969 21.875
Q59.2812 12.25 59.6719 10.6875
Q60.5938 7.07812 63.6719 5.85938
Q66.4062 4.78125 74.9531 4.15625
z

M83.7969 24.3125
Q81 25.5312 79.5938 28.375
Q78.1719 25.6406 75.0938 24.3125
Q78.1719 22.9062 79.5938 19.9688
Q81 22.9531 83.7969 24.3125
M52.0938 39.8906
Q40.2344 42.875 37.1094 54
Q35.5938 47.9062 32.2969 44.625
Q29 41.3594 22.9062 39.8906
Q29 38.375 32.3438 35.0312
Q35.6875 31.6875 37.2031 25.5938
Q38.7656 31.8438 42.2812 35.2031
Q45.7031 38.4219 52.0938 39.8906
M62.4062 3.42188
Q58.9375 4.82812 57.625 8.34375
Q56.2031 4.73438 52.1562 3.32812
Q56.1094 1.85938 57.5625 -1.60938
Q58.8906 1.95312 62.4062 3.42188" id="Symbola-2728"/>
    </defs>
    <g style="fill:#696969;" transform="translate(350.253950718 190.877496844)scale(0.3 -0.3)">
     <use xlink:href="#Symbola-2728"/>
    </g>
   </g>
   <g id="text_9">
    <!-- Radiates -->
    <defs>
     <path d="
M52.4844 5.17188
L61.0781 5.17188
L61.0781 0
L43.5 0
L43.5 8.10938
Q40.875 3.21875 36.7969 0.890625
Q32.7188 -1.42188 26.7031 -1.42188
Q17.1406 -1.42188 11.0625 6.17188
Q4.98438 13.7656 4.98438 25.9844
Q4.98438 38.1875 11.0312 45.75
Q17.0938 53.3281 26.7031 53.3281
Q32.7188 53.3281 36.7969 51
Q40.875 48.6875 43.5 43.7969
L43.5 70.7969
L35.0156 70.7969
L35.0156 75.9844
L52.4844 75.9844
z

M43.5 23.3906
L43.5 28.5156
Q43.5 37.8438 39.9062 42.7656
Q36.3281 47.7031 29.5 47.7031
Q22.5625 47.7031 19.0156 42.2344
Q15.4844 36.7656 15.4844 25.9844
Q15.4844 15.2344 19.0156 9.71875
Q22.5625 4.20312 29.5 4.20312
Q36.3281 4.20312 39.9062 9.10938
Q43.5 14.0156 43.5 23.3906" id="BitstreamVeraSerif-Roman-64"/>
     <path d="
M47.9062 36.1875
Q51.3125 35.25 53.7812 33.0312
Q56.25 30.8125 58.2031 26.8125
L68.7969 5.17188
L77.6875 5.17188
L77.6875 0
L60.5 0
L49.125 23.1875
Q45.8438 29.9375 43.1094 31.9062
Q40.375 33.8906 35.5938 33.8906
L24.7031 33.8906
L24.7031 5.17188
L35.0156 5.17188
L35.0156 0
L5.51562 0
L5.51562 5.17188
L14.7969 5.17188
L14.7969 67.6719
L5.51562 67.6719
L5.51562 72.9062
L42.4844 72.9062
Q53.125 72.9062 58.9062 67.8281
Q64.7031 62.75 64.7031 53.4219
Q64.7031 45.9062 60.4688 41.5781
Q56.25 37.25 47.9062 36.1875
M24.7031 39.1094
L39.1094 39.1094
Q46.4844 39.1094 50 42.5938
Q53.5156 46.0938 53.5156 53.4219
Q53.5156 60.75 50 64.2031
Q46.4844 67.6719 39.1094 67.6719
L24.7031 67.6719
z
" id="BitstreamVeraSerif-Roman-52"/>
    </defs>
    <g style="fill:#696969;" transform="translate(362.701730769 207.920230769)scale(0.16 -0.16)">
     <use xlink:href="#BitstreamVeraSerif-Roman-52"/>
     <use x="77.54296875" xlink:href="#BitstreamVeraSerif-Roman-61"/>
     <use x="137.162109375" xlink:href="#BitstreamVeraSerif-Roman-64"/>
     <use x="201.17578125" xlink:href="#BitstreamVeraSerif-Roman-69"/>
     <use x="233.158203125" xlink:href="#BitstreamVeraSerif-Roman-61"/>
     <use x="292.77734375" xlink:href="#BitstreamVeraSerif-Roman-74"/>
     <use x="332.962890625" xlink:href="#BitstreamVeraSerif-Roman-65"/>
     <use x="392.142578125" xlink:href="#BitstreamVeraSerif-Roman-73"/>
    </g>
   </g>
   <g id="text_10">
    <!-- Photon -->
    <g style="fill:#4682b4;" transform="translate(356.963211538 64.2303846154)scale(0.16 -0.16)">
     <use xlink:href="#BitstreamVeraSerif-Roman-50"/>
     <use x="67.28515625" xlink:href="#BitstreamVeraSerif-Roman-68"/>
     <use x="131.689453125" xlink:href="#BitstreamVeraSerif-Roman-6f"/>
     <use x="191.89453125" xlink:href="#BitstreamVeraSerif-Roman-74"/>
     <use x="232.080078125" xlink:href="#BitstreamVeraSerif-Roman-6f"/>
     <use x="292.28515625" xlink:href="#BitstreamVeraSerif-Roman-6e"/>
    </g>
   </g>
  </g>
 </g>
 <defs>
  <clipPath id="p8ccb978988">
   <rect height="406.08" width="406.08" x="84.96" y="12.96"/>
  </clipPath>
 </defs>
</svg>
